<svg xmlns="http://www.w3.org/2000/svg" xmlns:xlink="http://www.w3.org/1999/xlink" width="500" zoomAndPan="magnify" viewBox="0 0 375 374.999991" height="500" preserveAspectRatio="xMidYMid meet" version="1.0"><defs><clipPath id="e0bdec0f14"><path d="M 92 148 L 224 148 L 224 273 L 92 273 Z M 92 148 " clip-rule="nonzero"/></clipPath><clipPath id="a9097cbadf"><path d="M 129.023438 272.121094 L 92.28125 148.136719 L 205.003906 114.734375 L 241.742188 238.71875 Z M 129.023438 272.121094 " clip-rule="nonzero"/></clipPath><clipPath id="e3c2b891c2"><path d="M 223.375 176.726562 L 92.28125 148.136719 L 129.023438 272.121094 Z M 223.375 176.726562 " clip-rule="nonzero"/></clipPath><clipPath id="a030033c07"><path d="M 111.191406 161.867188 L 191.257812 161.867188 L 191.257812 239.394531 L 111.191406 239.394531 Z M 111.191406 161.867188 " clip-rule="nonzero"/></clipPath><clipPath id="462e763bf2"><path d="M 151.222656 161.867188 L 191.257812 200.628906 L 151.222656 239.394531 L 111.191406 200.628906 Z M 151.222656 161.867188 " clip-rule="nonzero"/></clipPath><clipPath id="187c0a897f"><path d="M 132.292969 141.917969 L 211.894531 141.917969 L 211.894531 218.996094 L 132.292969 218.996094 Z M 132.292969 141.917969 " clip-rule="nonzero"/></clipPath><clipPath id="f8edb2b27c"><path d="M 172.09375 141.917969 L 211.894531 180.457031 L 172.09375 218.996094 L 132.292969 180.457031 Z M 172.09375 141.917969 " clip-rule="nonzero"/></clipPath><clipPath id="140109978e"><path d="M 98 175 L 179 175 L 179 253 L 98 253 Z M 98 175 " clip-rule="nonzero"/></clipPath><clipPath id="60258410df"><path d="M 96.6875 176.707031 L 176.703125 173.78125 L 179.535156 251.261719 L 99.519531 254.183594 Z M 96.6875 176.707031 " clip-rule="nonzero"/></clipPath><clipPath id="df70fdf0a9"><path d="M 136.695312 175.246094 L 178.117188 212.519531 L 139.527344 252.722656 L 98.105469 215.445312 Z M 136.695312 175.246094 " clip-rule="nonzero"/></clipPath><clipPath id="48a8f9f035"><path d="M 84.597656 93.558594 L 147.125 93.558594 L 147.125 368.191406 L 84.597656 368.191406 Z M 84.597656 93.558594 " clip-rule="nonzero"/></clipPath><clipPath id="860f765518"><path d="M 208 69 L 287 69 L 287 183 L 208 183 Z M 208 69 " clip-rule="nonzero"/></clipPath><clipPath id="c99746de89"><path d="M 216.671875 182.523438 L 208.039062 69.277344 L 281.769531 63.65625 L 290.402344 176.902344 Z M 216.671875 182.523438 " clip-rule="nonzero"/></clipPath><clipPath id="49258b9800"><path d="M 286.085938 120.277344 L 208.039062 69.277344 L 216.671875 182.523438 Z M 286.085938 120.277344 " clip-rule="nonzero"/></clipPath><clipPath id="f04e7a7bc4"><path d="M 84.585938 6.785156 L 217.835938 6.785156 L 217.835938 93.535156 L 84.585938 93.535156 Z M 84.585938 6.785156 " clip-rule="nonzero"/></clipPath><clipPath id="d44c4db47a"><path d="M 151.210938 6.785156 L 84.585938 93.535156 L 217.835938 93.535156 Z M 151.210938 6.785156 " clip-rule="nonzero"/></clipPath><clipPath id="bdb2affbe9"><path d="M 111.191406 6.808594 L 191.257812 6.808594 L 191.257812 84.335938 L 111.191406 84.335938 Z M 111.191406 6.808594 " clip-rule="nonzero"/></clipPath><clipPath id="e854513d59"><path d="M 151.222656 6.808594 L 191.257812 45.570312 L 151.222656 84.335938 L 111.191406 45.570312 Z M 151.222656 6.808594 " clip-rule="nonzero"/></clipPath><clipPath id="ce340c1c77"><path d="M 151.222656 45.570312 L 231.289062 45.570312 L 231.289062 123.101562 L 151.222656 123.101562 Z M 151.222656 45.570312 " clip-rule="nonzero"/></clipPath><clipPath id="8b9b29041f"><path d="M 191.257812 45.570312 L 231.289062 84.335938 L 191.257812 123.101562 L 151.222656 84.335938 Z M 191.257812 45.570312 " clip-rule="nonzero"/></clipPath><clipPath id="3ebdea9414"><path d="M 191.257812 84.335938 L 271.324219 84.335938 L 271.324219 161.867188 L 191.257812 161.867188 Z M 191.257812 84.335938 " clip-rule="nonzero"/></clipPath><clipPath id="5f50e6136d"><path d="M 231.289062 84.335938 L 271.324219 123.101562 L 231.289062 161.867188 L 191.257812 123.101562 Z M 231.289062 84.335938 " clip-rule="nonzero"/></clipPath><clipPath id="63e5d8f1bd"><path d="M 151.222656 123.101562 L 231.289062 123.101562 L 231.289062 200.628906 L 151.222656 200.628906 Z M 151.222656 123.101562 " clip-rule="nonzero"/></clipPath><clipPath id="6fb1cf2105"><path d="M 191.257812 123.101562 L 231.289062 161.867188 L 191.257812 200.628906 L 151.222656 161.867188 Z M 191.257812 123.101562 " clip-rule="nonzero"/></clipPath><clipPath id="f1ddc45fd9"><path d="M 135.089844 29.761719 L 214.210938 29.761719 L 214.210938 106.375 L 135.089844 106.375 Z M 135.089844 29.761719 " clip-rule="nonzero"/></clipPath><clipPath id="65c104a727"><path d="M 174.652344 29.761719 L 214.210938 68.070312 L 174.652344 106.375 L 135.089844 68.070312 Z M 174.652344 29.761719 " clip-rule="nonzero"/></clipPath><clipPath id="d34126ff32"><path d="M 167.019531 108.988281 L 246.460938 108.988281 L 246.460938 185.914062 L 167.019531 185.914062 Z M 167.019531 108.988281 " clip-rule="nonzero"/></clipPath><clipPath id="442c42a2f6"><path d="M 206.742188 108.988281 L 246.460938 147.453125 L 206.742188 185.914062 L 167.019531 147.453125 Z M 206.742188 108.988281 " clip-rule="nonzero"/></clipPath></defs><g clip-path="url(#e0bdec0f14)"><g clip-path="url(#a9097cbadf)"><g clip-path="url(#e3c2b891c2)"><path fill="#560216" d="M 129.023438 272.121094 L 92.28125 148.136719 L 205.003906 114.734375 L 241.742188 238.71875 Z M 129.023438 272.121094 " fill-opacity="1" fill-rule="nonzero"/></g></g></g><g clip-path="url(#a030033c07)"><g clip-path="url(#462e763bf2)"><path fill="#2d90eb" d="M 111.191406 161.867188 L 191.257812 161.867188 L 191.257812 239.394531 L 111.191406 239.394531 Z M 111.191406 161.867188 " fill-opacity="1" fill-rule="nonzero"/></g></g><g clip-path="url(#187c0a897f)"><g clip-path="url(#f8edb2b27c)"><path fill="#f85646" d="M 132.292969 141.917969 L 211.894531 141.917969 L 211.894531 218.996094 L 132.292969 218.996094 Z M 132.292969 141.917969 " fill-opacity="1" fill-rule="nonzero"/></g></g><g clip-path="url(#140109978e)"><g clip-path="url(#60258410df)"><g clip-path="url(#df70fdf0a9)"><path fill="#f85646" d="M 96.6875 176.707031 L 176.703125 173.78125 L 179.535156 251.261719 L 99.519531 254.183594 Z M 96.6875 176.707031 " fill-opacity="1" fill-rule="nonzero"/></g></g></g><path stroke-linecap="round" transform="matrix(1.503351, 0, 0, 1.500184, 84.599032, 92.809132)" fill="none" stroke-linejoin="miter" d="M 0.500569 0.49958 L 85.820357 0.49958 " stroke="#141432" stroke-width="1" stroke-opacity="1" stroke-miterlimit="4"/><path stroke-linecap="round" transform="matrix(1.503351, 0, 0, 1.500184, 84.599032, 92.809132)" fill-opacity="1" fill="#141432" fill-rule="nonzero" stroke-linejoin="round" d="M 86.32184 -1.000236 L 88.31998 0.49958 L 86.32184 1.999396 Z M 86.32184 -1.000236 " stroke="#141432" stroke-width="1" stroke-opacity="1" stroke-miterlimit="4"/><g clip-path="url(#48a8f9f035)"><path fill="#bc1823" d="M 84.597656 93.558594 L 147.125 93.558594 L 147.125 368.191406 L 84.597656 368.191406 Z M 84.597656 93.558594 " fill-opacity="1" fill-rule="nonzero"/></g><g clip-path="url(#860f765518)"><g clip-path="url(#c99746de89)"><g clip-path="url(#49258b9800)"><path fill="#560216" d="M 216.671875 182.523438 L 208.039062 69.277344 L 281.769531 63.65625 L 290.402344 176.902344 Z M 216.671875 182.523438 " fill-opacity="1" fill-rule="nonzero"/></g></g></g><g clip-path="url(#f04e7a7bc4)"><g clip-path="url(#d44c4db47a)"><path fill="#3b181d" d="M 217.835938 93.535156 L 84.585938 93.535156 L 84.585938 6.785156 L 217.835938 6.785156 Z M 217.835938 93.535156 " fill-opacity="1" fill-rule="nonzero"/></g></g><g clip-path="url(#bdb2affbe9)"><g clip-path="url(#e854513d59)"><path fill="#f85646" d="M 111.191406 6.808594 L 191.257812 6.808594 L 191.257812 84.335938 L 111.191406 84.335938 Z M 111.191406 6.808594 " fill-opacity="1" fill-rule="nonzero"/></g></g><g clip-path="url(#ce340c1c77)"><g clip-path="url(#8b9b29041f)"><path fill="#f85646" d="M 151.222656 45.570312 L 231.289062 45.570312 L 231.289062 123.101562 L 151.222656 123.101562 Z M 151.222656 45.570312 " fill-opacity="1" fill-rule="nonzero"/></g></g><g clip-path="url(#3ebdea9414)"><g clip-path="url(#5f50e6136d)"><path fill="#f85646" d="M 191.257812 84.335938 L 271.324219 84.335938 L 271.324219 161.867188 L 191.257812 161.867188 Z M 191.257812 84.335938 " fill-opacity="1" fill-rule="nonzero"/></g></g><g clip-path="url(#63e5d8f1bd)"><g clip-path="url(#6fb1cf2105)"><path fill="#f85646" d="M 151.222656 123.101562 L 231.289062 123.101562 L 231.289062 200.628906 L 151.222656 200.628906 Z M 151.222656 123.101562 " fill-opacity="1" fill-rule="nonzero"/></g></g><path stroke-linecap="butt" transform="matrix(1.092004, -1.054404, 1.042048, 1.079207, 189.692351, 121.479602)" fill="none" stroke-linejoin="miter" d="M -0.000372754 1.498935 L 35.584152 1.499814 " stroke="#f85646" stroke-width="3" stroke-opacity="1" stroke-miterlimit="4"/><g clip-path="url(#f1ddc45fd9)"><g clip-path="url(#65c104a727)"><path fill="#f85646" d="M 135.089844 29.761719 L 214.210938 29.761719 L 214.210938 106.375 L 135.089844 106.375 Z M 135.089844 29.761719 " fill-opacity="1" fill-rule="nonzero"/></g></g><g clip-path="url(#d34126ff32)"><g clip-path="url(#442c42a2f6)"><path fill="#f85646" d="M 167.019531 108.988281 L 246.460938 108.988281 L 246.460938 185.914062 L 167.019531 185.914062 Z M 167.019531 108.988281 " fill-opacity="1" fill-rule="nonzero"/></g></g></svg>