<svg width="17" height="16" viewBox="0 0 17 16" fill="none" xmlns="http://www.w3.org/2000/svg">
<path fill-rule="evenodd" clip-rule="evenodd" d="M3.5 14H10.2929L10.2937 14C10.2937 14 10.4907 14.0004 10.673 13.9255C10.673 13.9255 10.8561 13.8503 10.9964 13.7107L14.2098 10.4973C14.2098 10.4973 14.3503 10.3561 14.4255 10.173C14.4255 10.173 14.5007 9.98993 14.5 9.79199L14.5 3C14.5 3 14.5 2.58579 14.2071 2.29289C14.2071 2.29289 13.9142 2 13.5 2H3.5C3.5 2 3.08579 2 2.79289 2.29289C2.79289 2.29289 2.5 2.58579 2.5 3V13C2.5 13 2.5 13.4142 2.79289 13.7071C2.79289 13.7071 3.08579 14 3.5 14ZM13.5 9.79289L10.2929 13H3.5V3H13.5L13.5 9.79289Z" fill="#1C1C1C"/>
<path d="M10 10V13.4563C10 13.7324 10.2239 13.9563 10.5 13.9563C10.7761 13.9563 11 13.7324 11 13.4563V10.5H13.9563C14.2324 10.5 14.4563 10.2761 14.4563 10C14.4563 9.72386 14.2324 9.5 13.9563 9.5H10.5C10.2239 9.5 10 9.72386 10 10Z" fill="#1C1C1C"/>
</svg>
