<svg xmlns="http://www.w3.org/2000/svg" xmlns:xlink="http://www.w3.org/1999/xlink" width="500" zoomAndPan="magnify" viewBox="0 0 375 374.999991" height="500" preserveAspectRatio="xMidYMid meet" version="1.0"><defs><g/><clipPath id="13f1403997"><path d="M 275.308594 252.351562 L 372.226562 252.351562 L 372.226562 275.90625 L 275.308594 275.90625 Z M 275.308594 252.351562 " clip-rule="nonzero"/></clipPath><clipPath id="3d48f8fd7d"><path d="M 372.226562 264.128906 L 323.765625 275.90625 L 275.308594 264.128906 L 323.765625 252.351562 Z M 372.226562 264.128906 " clip-rule="nonzero"/></clipPath><clipPath id="59b5d370ad"><path d="M 70.230469 193.636719 L 94.769531 193.636719 L 94.769531 264.136719 L 70.230469 264.136719 Z M 70.230469 193.636719 " clip-rule="nonzero"/></clipPath><clipPath id="1a700a4575"><path d="M 8 154 L 74 154 L 74 217 L 8 217 Z M 8 154 " clip-rule="nonzero"/></clipPath><clipPath id="82bda62e90"><path d="M 26.4375 216.101562 L 8.070312 154.113281 L 64.421875 137.417969 L 82.789062 199.402344 Z M 26.4375 216.101562 " clip-rule="nonzero"/></clipPath><clipPath id="a4da3d311c"><path d="M 73.605469 168.410156 L 8.070312 154.113281 L 26.4375 216.101562 Z M 73.605469 168.410156 " clip-rule="nonzero"/></clipPath><clipPath id="ba366248c3"><path d="M 17.519531 160.984375 L 57.546875 160.984375 L 57.546875 199.746094 L 17.519531 199.746094 Z M 17.519531 160.984375 " clip-rule="nonzero"/></clipPath><clipPath id="fa1805c777"><path d="M 37.535156 160.984375 L 57.546875 180.363281 L 37.535156 199.746094 L 17.519531 180.363281 Z M 37.535156 160.984375 " clip-rule="nonzero"/></clipPath><clipPath id="40933f7841"><path d="M 28.070312 151.011719 L 67.867188 151.011719 L 67.867188 189.546875 L 28.070312 189.546875 Z M 28.070312 151.011719 " clip-rule="nonzero"/></clipPath><clipPath id="c32d1aa8bb"><path d="M 47.96875 151.011719 L 67.867188 170.28125 L 47.96875 189.546875 L 28.070312 170.28125 Z M 47.96875 151.011719 " clip-rule="nonzero"/></clipPath><clipPath id="25dd2e822b"><path d="M 10 167 L 51 167 L 51 207 L 10 207 Z M 10 167 " clip-rule="nonzero"/></clipPath><clipPath id="2ca94f902c"><path d="M 10.269531 168.40625 L 50.269531 166.941406 L 51.6875 205.675781 L 11.683594 207.140625 Z M 10.269531 168.40625 " clip-rule="nonzero"/></clipPath><clipPath id="5b2c8ee61d"><path d="M 30.269531 167.675781 L 50.980469 186.308594 L 31.6875 206.40625 L 10.976562 187.773438 Z M 30.269531 167.675781 " clip-rule="nonzero"/></clipPath><clipPath id="903622e812"><path d="M 4.226562 126.835938 L 35.484375 126.835938 L 35.484375 264.136719 L 4.226562 264.136719 Z M 4.226562 126.835938 " clip-rule="nonzero"/></clipPath><clipPath id="e793fcc34d"><path d="M 65 114 L 105 114 L 105 172 L 65 172 Z M 65 114 " clip-rule="nonzero"/></clipPath><clipPath id="6190a13027"><path d="M 70.253906 171.316406 L 65.9375 114.699219 L 102.796875 111.890625 L 107.113281 168.507812 Z M 70.253906 171.316406 " clip-rule="nonzero"/></clipPath><clipPath id="5d36423875"><path d="M 104.957031 140.199219 L 65.9375 114.699219 L 70.253906 171.316406 Z M 104.957031 140.199219 " clip-rule="nonzero"/></clipPath><clipPath id="395539560a"><path d="M 4.210938 83.449219 L 70.828125 83.449219 L 70.828125 126.820312 L 4.210938 126.820312 Z M 4.210938 83.449219 " clip-rule="nonzero"/></clipPath><clipPath id="9494a73169"><path d="M 37.519531 83.449219 L 4.210938 126.820312 L 70.828125 126.820312 Z M 37.519531 83.449219 " clip-rule="nonzero"/></clipPath><clipPath id="e601c978f4"><path d="M 17.519531 83.464844 L 57.546875 83.464844 L 57.546875 122.226562 L 17.519531 122.226562 Z M 17.519531 83.464844 " clip-rule="nonzero"/></clipPath><clipPath id="f1aa8058c3"><path d="M 37.535156 83.464844 L 57.546875 102.84375 L 37.535156 122.226562 L 17.519531 102.84375 Z M 37.535156 83.464844 " clip-rule="nonzero"/></clipPath><clipPath id="ee36617d48"><path d="M 37.535156 102.84375 L 77.5625 102.84375 L 77.5625 141.605469 L 37.535156 141.605469 Z M 37.535156 102.84375 " clip-rule="nonzero"/></clipPath><clipPath id="1c67980dae"><path d="M 57.546875 102.84375 L 77.5625 122.226562 L 57.546875 141.605469 L 37.535156 122.226562 Z M 57.546875 102.84375 " clip-rule="nonzero"/></clipPath><clipPath id="0e580995a5"><path d="M 57.546875 122.226562 L 97.574219 122.226562 L 97.574219 160.984375 L 57.546875 160.984375 Z M 57.546875 122.226562 " clip-rule="nonzero"/></clipPath><clipPath id="0a3c3ec62c"><path d="M 77.5625 122.226562 L 97.574219 141.605469 L 77.5625 160.984375 L 57.546875 141.605469 Z M 77.5625 122.226562 " clip-rule="nonzero"/></clipPath><clipPath id="e769f75b58"><path d="M 37.535156 141.605469 L 77.5625 141.605469 L 77.5625 180.363281 L 37.535156 180.363281 Z M 37.535156 141.605469 " clip-rule="nonzero"/></clipPath><clipPath id="63063e1e8f"><path d="M 57.546875 141.605469 L 77.5625 160.984375 L 57.546875 180.363281 L 37.535156 160.984375 Z M 57.546875 141.605469 " clip-rule="nonzero"/></clipPath><clipPath id="f264e52f9f"><path d="M 29.46875 94.941406 L 69.023438 94.941406 L 69.023438 133.242188 L 29.46875 133.242188 Z M 29.46875 94.941406 " clip-rule="nonzero"/></clipPath><clipPath id="7f5c3582a7"><path d="M 49.246094 94.941406 L 69.023438 114.09375 L 49.246094 133.242188 L 29.46875 114.09375 Z M 49.246094 94.941406 " clip-rule="nonzero"/></clipPath><clipPath id="6202242c35"><path d="M 45.429688 134.550781 L 85.148438 134.550781 L 85.148438 173.007812 L 45.429688 173.007812 Z M 45.429688 134.550781 " clip-rule="nonzero"/></clipPath><clipPath id="33def1d0f0"><path d="M 65.289062 134.550781 L 85.148438 153.777344 L 65.289062 173.007812 L 45.429688 153.777344 Z M 65.289062 134.550781 " clip-rule="nonzero"/></clipPath></defs><g clip-path="url(#13f1403997)"><g clip-path="url(#3d48f8fd7d)"><path fill="#ff3131" d="M 372.226562 252.351562 L 372.226562 275.90625 L 275.304688 275.90625 L 275.304688 252.351562 Z M 372.226562 252.351562 " fill-opacity="1" fill-rule="nonzero"/></g></g><g fill="#000000" fill-opacity="1"><g transform="translate(62.08219, 264.807331)"><g><path d="M 8.21875 0 L 8.21875 -70.28125 L 32.46875 -70.28125 L 32.46875 -60.15625 L 32.75 -60.15625 C 32.925781 -60.519531 33.21875 -60.972656 33.625 -61.515625 C 34.039062 -62.066406 34.929688 -63.023438 36.296875 -64.390625 C 37.671875 -65.765625 39.132812 -67 40.6875 -68.09375 C 42.238281 -69.1875 44.25 -70.164062 46.71875 -71.03125 C 49.1875 -71.90625 51.703125 -72.34375 54.265625 -72.34375 C 56.910156 -72.34375 59.507812 -71.976562 62.0625 -71.25 C 64.625 -70.519531 66.5 -69.789062 67.6875 -69.0625 L 69.609375 -67.953125 L 59.46875 -47.40625 C 56.445312 -49.96875 52.242188 -51.25 46.859375 -51.25 C 43.929688 -51.25 41.414062 -50.609375 39.3125 -49.328125 C 37.21875 -48.046875 35.734375 -46.488281 34.859375 -44.65625 C 33.992188 -42.832031 33.378906 -41.28125 33.015625 -40 C 32.648438 -38.726562 32.46875 -37.726562 32.46875 -37 L 32.46875 0 Z M 8.21875 0 "/></g></g></g><g fill="#000000" fill-opacity="1"><g transform="translate(130.315593, 264.807331)"><g><path d="M 79.328125 -31.78125 L 28.359375 -31.78125 C 28.359375 -26.851562 29.957031 -23.203125 33.15625 -20.828125 C 36.351562 -18.453125 39.828125 -17.265625 43.578125 -17.265625 C 47.503906 -17.265625 50.609375 -17.789062 52.890625 -18.84375 C 55.171875 -19.894531 57.773438 -21.972656 60.703125 -25.078125 L 78.234375 -16.3125 C 70.929688 -4.0625 58.785156 2.0625 41.796875 2.0625 C 31.191406 2.0625 22.097656 -1.566406 14.515625 -8.828125 C 6.941406 -16.097656 3.15625 -24.847656 3.15625 -35.078125 C 3.15625 -45.304688 6.941406 -54.070312 14.515625 -61.375 C 22.097656 -68.6875 31.191406 -72.34375 41.796875 -72.34375 C 52.929688 -72.34375 61.992188 -69.125 68.984375 -62.6875 C 75.972656 -56.25 79.46875 -47.046875 79.46875 -35.078125 C 79.46875 -33.429688 79.421875 -32.332031 79.328125 -31.78125 Z M 29.046875 -45.21875 L 55.765625 -45.21875 C 55.210938 -48.875 53.769531 -51.679688 51.4375 -53.640625 C 49.113281 -55.609375 46.125 -56.59375 42.46875 -56.59375 C 38.457031 -56.59375 35.265625 -55.539062 32.890625 -53.4375 C 30.515625 -51.332031 29.234375 -48.59375 29.046875 -45.21875 Z M 29.046875 -45.21875 "/></g></g></g><g fill="#000000" fill-opacity="1"><g transform="translate(212.935566, 264.807331)"><g><path d="M 38.78125 -72.34375 C 42.789062 -72.34375 46.757812 -71.882812 50.6875 -70.96875 C 54.625 -70.0625 57.550781 -69.148438 59.46875 -68.234375 L 62.34375 -66.859375 L 54.390625 -50.96875 C 48.910156 -53.894531 43.707031 -55.359375 38.78125 -55.359375 C 36.039062 -55.359375 34.097656 -55.0625 32.953125 -54.46875 C 31.804688 -53.875 31.234375 -52.753906 31.234375 -51.109375 C 31.234375 -50.742188 31.28125 -50.378906 31.375 -50.015625 C 31.46875 -49.648438 31.648438 -49.304688 31.921875 -48.984375 C 32.191406 -48.660156 32.441406 -48.382812 32.671875 -48.15625 C 32.898438 -47.925781 33.289062 -47.675781 33.84375 -47.40625 C 34.394531 -47.132812 34.828125 -46.925781 35.140625 -46.78125 C 35.460938 -46.644531 35.988281 -46.441406 36.71875 -46.171875 C 37.445312 -45.898438 37.992188 -45.695312 38.359375 -45.5625 C 38.722656 -45.425781 39.335938 -45.21875 40.203125 -44.9375 C 41.078125 -44.664062 41.742188 -44.484375 42.203125 -44.390625 C 45.035156 -43.566406 47.5 -42.648438 49.59375 -41.640625 C 51.695312 -40.640625 53.910156 -39.269531 56.234375 -37.53125 C 58.566406 -35.800781 60.375 -33.609375 61.65625 -30.953125 C 62.9375 -28.304688 63.578125 -25.296875 63.578125 -21.921875 C 63.578125 -5.929688 52.476562 2.0625 30.28125 2.0625 C 25.257812 2.0625 20.488281 1.285156 15.96875 -0.265625 C 11.445312 -1.828125 8.179688 -3.382812 6.171875 -4.9375 L 3.15625 -7.40625 L 13.015625 -23.984375 C 13.742188 -23.335938 14.703125 -22.582031 15.890625 -21.71875 C 17.078125 -20.851562 19.222656 -19.664062 22.328125 -18.15625 C 25.429688 -16.644531 28.128906 -15.890625 30.421875 -15.890625 C 35.441406 -15.890625 37.953125 -17.582031 37.953125 -20.96875 C 37.953125 -22.519531 37.3125 -23.726562 36.03125 -24.59375 C 34.75 -25.457031 32.578125 -26.4375 29.515625 -27.53125 C 26.460938 -28.632812 24.066406 -29.640625 22.328125 -30.546875 C 17.941406 -32.835938 14.46875 -35.421875 11.90625 -38.296875 C 9.351562 -41.171875 8.078125 -44.984375 8.078125 -49.734375 C 8.078125 -56.859375 10.835938 -62.40625 16.359375 -66.375 C 21.890625 -70.351562 29.363281 -72.34375 38.78125 -72.34375 Z M 38.78125 -72.34375 "/></g></g></g><g fill="#000000" fill-opacity="1"><g transform="translate(280.346879, 264.807331)"><g><path d="M 79.328125 -31.78125 L 28.359375 -31.78125 C 28.359375 -26.851562 29.957031 -23.203125 33.15625 -20.828125 C 36.351562 -18.453125 39.828125 -17.265625 43.578125 -17.265625 C 47.503906 -17.265625 50.609375 -17.789062 52.890625 -18.84375 C 55.171875 -19.894531 57.773438 -21.972656 60.703125 -25.078125 L 78.234375 -16.3125 C 70.929688 -4.0625 58.785156 2.0625 41.796875 2.0625 C 31.191406 2.0625 22.097656 -1.566406 14.515625 -8.828125 C 6.941406 -16.097656 3.15625 -24.847656 3.15625 -35.078125 C 3.15625 -45.304688 6.941406 -54.070312 14.515625 -61.375 C 22.097656 -68.6875 31.191406 -72.34375 41.796875 -72.34375 C 52.929688 -72.34375 61.992188 -69.125 68.984375 -62.6875 C 75.972656 -56.25 79.46875 -47.046875 79.46875 -35.078125 C 79.46875 -33.429688 79.421875 -32.332031 79.328125 -31.78125 Z M 29.046875 -45.21875 L 55.765625 -45.21875 C 55.210938 -48.875 53.769531 -51.679688 51.4375 -53.640625 C 49.113281 -55.609375 46.125 -56.59375 42.46875 -56.59375 C 38.457031 -56.59375 35.265625 -55.539062 32.890625 -53.4375 C 30.515625 -51.332031 29.234375 -48.59375 29.046875 -45.21875 Z M 29.046875 -45.21875 "/></g></g></g><g clip-path="url(#59b5d370ad)"><path fill="#bc1823" d="M 70.230469 193.636719 L 94.769531 193.636719 L 94.769531 264.136719 L 70.230469 264.136719 Z M 70.230469 193.636719 " fill-opacity="1" fill-rule="nonzero"/></g><g clip-path="url(#1a700a4575)"><g clip-path="url(#82bda62e90)"><g clip-path="url(#a4da3d311c)"><path fill="#560216" d="M 26.4375 216.101562 L 8.070312 154.113281 L 64.421875 137.417969 L 82.789062 199.402344 Z M 26.4375 216.101562 " fill-opacity="1" fill-rule="nonzero"/></g></g></g><g clip-path="url(#ba366248c3)"><g clip-path="url(#fa1805c777)"><path fill="#2d90eb" d="M 17.519531 160.984375 L 57.546875 160.984375 L 57.546875 199.746094 L 17.519531 199.746094 Z M 17.519531 160.984375 " fill-opacity="1" fill-rule="nonzero"/></g></g><g clip-path="url(#40933f7841)"><g clip-path="url(#c32d1aa8bb)"><path fill="#f85646" d="M 28.070312 151.011719 L 67.867188 151.011719 L 67.867188 189.546875 L 28.070312 189.546875 Z M 28.070312 151.011719 " fill-opacity="1" fill-rule="nonzero"/></g></g><g clip-path="url(#25dd2e822b)"><g clip-path="url(#2ca94f902c)"><g clip-path="url(#5b2c8ee61d)"><path fill="#f85646" d="M 10.269531 168.40625 L 50.269531 166.941406 L 51.6875 205.675781 L 11.683594 207.140625 Z M 10.269531 168.40625 " fill-opacity="1" fill-rule="nonzero"/></g></g></g><path stroke-linecap="round" transform="matrix(1.094652, 0, 0, 1.09325, 4.225367, 126.289269)" fill="none" stroke-linejoin="miter" d="M 0.50068 0.50004 L 57.93548 0.50004 " stroke="#141432" stroke-width="1" stroke-opacity="1" stroke-miterlimit="4"/><path stroke-linecap="round" transform="matrix(1.094652, 0, 0, 1.09325, 4.225367, 126.289269)" fill-opacity="1" fill="#141432" fill-rule="nonzero" stroke-linejoin="round" d="M 58.435068 -1.000646 L 60.433421 0.50004 L 58.435068 2.000727 Z M 58.435068 -1.000646 " stroke="#141432" stroke-width="1" stroke-opacity="1" stroke-miterlimit="4"/><g clip-path="url(#903622e812)"><path fill="#bc1823" d="M 4.226562 126.835938 L 35.484375 126.835938 L 35.484375 264.136719 L 4.226562 264.136719 Z M 4.226562 126.835938 " fill-opacity="1" fill-rule="nonzero"/></g><g clip-path="url(#e793fcc34d)"><g clip-path="url(#6190a13027)"><g clip-path="url(#5d36423875)"><path fill="#560216" d="M 70.253906 171.316406 L 65.9375 114.699219 L 102.796875 111.890625 L 107.113281 168.507812 Z M 70.253906 171.316406 " fill-opacity="1" fill-rule="nonzero"/></g></g></g><g clip-path="url(#395539560a)"><g clip-path="url(#9494a73169)"><path fill="#3b181d" d="M 70.828125 126.820312 L 4.210938 126.820312 L 4.210938 83.449219 L 70.828125 83.449219 Z M 70.828125 126.820312 " fill-opacity="1" fill-rule="nonzero"/></g></g><g clip-path="url(#e601c978f4)"><g clip-path="url(#f1aa8058c3)"><path fill="#f85646" d="M 17.519531 83.464844 L 57.546875 83.464844 L 57.546875 122.226562 L 17.519531 122.226562 Z M 17.519531 83.464844 " fill-opacity="1" fill-rule="nonzero"/></g></g><g clip-path="url(#ee36617d48)"><g clip-path="url(#1c67980dae)"><path fill="#f85646" d="M 37.535156 102.84375 L 77.5625 102.84375 L 77.5625 141.605469 L 37.535156 141.605469 Z M 37.535156 102.84375 " fill-opacity="1" fill-rule="nonzero"/></g></g><g clip-path="url(#0e580995a5)"><g clip-path="url(#0a3c3ec62c)"><path fill="#f85646" d="M 57.546875 122.226562 L 97.574219 122.226562 L 97.574219 160.984375 L 57.546875 160.984375 Z M 57.546875 122.226562 " fill-opacity="1" fill-rule="nonzero"/></g></g><g clip-path="url(#e769f75b58)"><g clip-path="url(#63063e1e8f)"><path fill="#f85646" d="M 37.535156 141.605469 L 77.5625 141.605469 L 77.5625 180.363281 L 37.535156 180.363281 Z M 37.535156 141.605469 " fill-opacity="1" fill-rule="nonzero"/></g></g><path stroke-linecap="butt" transform="matrix(0.773375, -0.746746, 0.759386, 0.786466, 56.787426, 140.816696)" fill="none" stroke-linejoin="miter" d="M 0.00107547 0.998988 L 24.410665 1.000501 " stroke="#f85646" stroke-width="2" stroke-opacity="1" stroke-miterlimit="4"/><g clip-path="url(#f264e52f9f)"><g clip-path="url(#7f5c3582a7)"><path fill="#f85646" d="M 29.46875 94.941406 L 69.023438 94.941406 L 69.023438 133.242188 L 29.46875 133.242188 Z M 29.46875 94.941406 " fill-opacity="1" fill-rule="nonzero"/></g></g><g clip-path="url(#6202242c35)"><g clip-path="url(#33def1d0f0)"><path fill="#f85646" d="M 45.429688 134.550781 L 85.148438 134.550781 L 85.148438 173.007812 L 45.429688 173.007812 Z M 45.429688 134.550781 " fill-opacity="1" fill-rule="nonzero"/></g></g></svg>