<svg width="16" height="17" viewBox="0 0 16 17" fill="none" xmlns="http://www.w3.org/2000/svg">
<path d="M8 10.5H6V8.5L10.5 4L12.5 6L8 10.5Z" fill="black" fill-opacity="0.1"/>
<path fill-rule="evenodd" clip-rule="evenodd" d="M14.3536 4.85355L8.35355 10.8536C8.25979 10.9473 8.13261 11 8 11H6C5.72386 11 5.5 10.7761 5.5 10.5V8.5C5.5 8.36739 5.55268 8.24021 5.64645 8.14645L11.6464 2.14645C11.7402 2.05268 11.8674 2 12 2C12.1326 2 12.2598 2.05268 12.3536 2.14645L14.3536 4.14645C14.5488 4.34171 14.5488 4.65829 14.3536 4.85355ZM12 3.20711L13.2929 4.5L7.79289 10H6.5V8.70711L12 3.20711Z" fill="#1C1C1C"/>
<path d="M12.1463 6.3534L12.1464 6.35355C12.2402 6.44732 12.3674 6.5 12.5 6.5C12.5086 6.5 12.5173 6.49978 12.5259 6.49933C12.6494 6.49293 12.7661 6.441 12.8536 6.35355C12.9473 6.25979 13 6.13261 13 6C13 5.86739 12.9473 5.74021 12.8536 5.64645L10.8536 3.64645C10.7598 3.55268 10.6326 3.5 10.5 3.5C10.3674 3.5 10.2402 3.55268 10.1464 3.64645C10.0527 3.74021 10 3.86739 10 4C10 4.13261 10.0527 4.25979 10.1464 4.35355L12.1463 6.3534Z" fill="#1C1C1C"/>
<path d="M3 3.5H8.5C8.77614 3.5 9 3.27614 9 3C9 2.72386 8.77614 2.5 8.5 2.5H3C2.58579 2.5 2.29289 2.79289 2.29289 2.79289C2 3.08579 2 3.5 2 3.5V13.5C2 13.9142 2.29289 14.2071 2.29289 14.2071C2.58579 14.5 3 14.5 3 14.5H13C13.4142 14.5 13.7071 14.2071 13.7071 14.2071C14 13.9142 14 13.5 14 13.5V8C14 7.72386 13.7761 7.5 13.5 7.5C13.2239 7.5 13 7.72386 13 8V13.5H3V3.5Z" fill="#1C1C1C"/>
</svg>
