<svg width="24" height="24" viewBox="0 0 24 24" fill="none" xmlns="http://www.w3.org/2000/svg">
<path d="M7.5 4.5V19.5C7.5 19.9142 7.83579 20.25 8.25 20.25C8.66421 20.25 9 19.9142 9 19.5V4.5C9 4.08579 8.66421 3.75 8.25 3.75C7.83579 3.75 7.5 4.08579 7.5 4.5Z" fill="black"/>
<path fill-rule="evenodd" clip-rule="evenodd" d="M2.25 5.25C2.25 5.25 2.25 4.62868 2.68934 4.18934C2.68934 4.18934 3.12868 3.75 3.75 3.75H20.25C20.25 3.75 20.8713 3.75 21.3107 4.18934C21.3107 4.18934 21.75 4.62868 21.75 5.25V18.75C21.75 18.75 21.75 19.3713 21.3107 19.8107C21.3107 19.8107 20.8713 20.25 20.25 20.25H3.75C3.75 20.25 3.12868 20.25 2.68934 19.8107C2.68934 19.8107 2.25 19.3713 2.25 18.75V5.25ZM3.75 5.25V18.75H20.25V5.25H3.75Z" fill="black"/>
<path d="M3 8.25H5.25C5.66421 8.25 6 7.91421 6 7.5C6 7.08579 5.66421 6.75 5.25 6.75H3C2.58579 6.75 2.25 7.08579 2.25 7.5C2.25 7.91421 2.58579 8.25 3 8.25Z" fill="black"/>
<path d="M3 11.25H5.25C5.66421 11.25 6 10.9142 6 10.5C6 10.0858 5.66421 9.75 5.25 9.75H3C2.58579 9.75 2.25 10.0858 2.25 10.5C2.25 10.9142 2.58579 11.25 3 11.25Z" fill="black"/>
<path d="M3 14.25H5.25C5.66421 14.25 6 13.9142 6 13.5C6 13.0858 5.66421 12.75 5.25 12.75H3C2.58579 12.75 2.25 13.0858 2.25 13.5C2.25 13.9142 2.58579 14.25 3 14.25Z" fill="black"/>
</svg>
