<svg width="16" height="16" viewBox="0 0 16 16" fill="none" xmlns="http://www.w3.org/2000/svg">
<path d="M8.70613 8.00047L12.8561 3.85672C12.9359 3.75957 12.9766 3.63624 12.9704 3.51071C12.9643 3.38519 12.9116 3.26644 12.8228 3.17757C12.7339 3.08871 12.6152 3.03607 12.4896 3.02991C12.3641 3.02374 12.2408 3.06449 12.1436 3.14422L7.99988 7.29422L3.85613 3.14422C3.75899 3.06449 3.63565 3.02374 3.51013 3.02991C3.3846 3.03607 3.26586 3.08871 3.17699 3.17757C3.08812 3.26644 3.03549 3.38519 3.02932 3.51071C3.02316 3.63624 3.0639 3.75957 3.14363 3.85672L7.29363 8.00047L3.14363 12.1442C3.04974 12.239 2.99707 12.367 2.99707 12.5005C2.99707 12.6339 3.04974 12.7619 3.14363 12.8567C3.2392 12.9491 3.36694 13.0008 3.49988 13.0008C3.63282 13.0008 3.76056 12.9491 3.85613 12.8567L7.99988 8.70672L12.1436 12.8567C12.2392 12.9491 12.3669 13.0008 12.4999 13.0008C12.6328 13.0008 12.7606 12.9491 12.8561 12.8567C12.95 12.7619 13.0027 12.6339 13.0027 12.5005C13.0027 12.367 12.95 12.239 12.8561 12.1442L8.70613 8.00047Z" fill="#1C1C1C"/>
</svg>
